<?xml version="1.0" encoding="utf-8"?>
<!-- Generator: Adobe Illustrator 25.0.0, SVG Export Plug-In . SVG Version: 6.00 Build 0)  -->
<svg version="1.1" id="Layer_1" xmlns="http://www.w3.org/2000/svg" xmlns:xlink="http://www.w3.org/1999/xlink" x="0px" y="0px"
	 viewBox="0 0 259.2 259.2" style="enable-background:new 0 0 259.2 259.2;" xml:space="preserve">
<style type="text/css">
	.st0{fill:#011627;}
</style>
<g id="Layer_x0020_1">
	<g id="_2744621441408">
		<path class="st0" d="M178.6,192.1H80.6c-1.4,0-2.5-1.1-2.5-2.5v-71.2l0-0.1v-0.2l0-0.1V118l0,0v-0.1l0,0v-0.1l0-0.1v-0.1h0v-0.1
			l0,0v0l0,0v-0.1l0,0l0,0v-0.1l0,0l0-0.1v0l0,0l0,0v0l0,0v0h0l0,0v0l0,0l0,0v0h0v0l0,0l0,0l0,0v0h0l0,0l0,0l0,0v0h0l0,0l0,0l0,0
			l19.6-19.4v-5.8l0-0.1v-0.1c0-0.1,0-0.1,0-0.1c0.1-0.1,0.1-0.2,0.1-0.3c0-0.1,0-0.1,0.1-0.2c0-0.1,0.1-0.1,0.1-0.1
			c0,0,0.1-0.1,0.1-0.1c0.1-0.1,0.2-0.2,0.3-0.3l0.1-0.1c0.1-0.1,0.2-0.2,0.3-0.3c0,0,0.1,0,0.1-0.1l0.2-0.1l0.2-0.1
			c0.1,0,0.2-0.1,0.3-0.1c0,0,0.1,0,0.1,0h0.1l0.1,0h0.1c0,0,0.1,0,0.1,0h5.4l21.5-21.5c1-1,2.6-1,3.5,0l21.5,21.5h5.4l0.1,0h0.2
			l0.1,0h0.1l0.1,0h0.1l0.1,0h0.1l0.1,0l0.1,0h0.1l0,0c0.9,0.4,1.5,1.3,1.5,2.3v5.5l19.6,19.4l0,0h0v0h0v0h0v0l0,0l0,0l0,0l0,0l0,0
			l0,0l0,0l0,0v0l0,0l0,0v0l0,0h0v0l0,0v0l0,0l0,0v0l0,0v0l0,0v0l0,0v0l0,0l0,0.1v0c0.1,0.3,0.2,0.6,0.2,0.9v71.1
			C181,191,179.9,192.1,178.6,192.1z M155.6,137.9V94.3h-52v43.6l26,26L155.6,137.9z M110.2,135.8c-1.4,0-2.5-1.1-2.5-2.5
			c0-1.4,1.1-2.5,2.5-2.5h38.7c1.4,0,2.5,1.1,2.5,2.5c0,1.4-1.1,2.5-2.5,2.5H110.2z M110.1,121c-1.4,0-2.5-1.1-2.5-2.5
			c0-1.4,1.1-2.5,2.5-2.5h38.7c1.4,0,2.5,1.1,2.5,2.5c0,1.4-1.1,2.5-2.5,2.5H110.1z M110.1,106.7c-1.4,0-2.5-1.1-2.5-2.5
			c0-1.4,1.1-2.5,2.5-2.5h38.7c1.4,0,2.5,1.1,2.5,2.5c0,1.4-1.1,2.5-2.5,2.5H110.1z M127.8,169.3l-28.5-28.5l-0.1,0l-16.1-16.1v62.5
			H176v-62.5l-44.7,44.7C130.4,170.2,128.8,170.2,127.8,169.3z M98.6,132.9V121H86.7L98.6,132.9z M98.6,116.1v-11.7l-11.9,11.7H98.6
			z M113.4,89.3h32.3l-16.2-16.2L113.4,89.3z M160.6,104.3v11.7h11.8L160.6,104.3z M160.6,121v11.9l11.9-11.9H160.6z"/>
	</g>
</g>
</svg>
