<svg xmlns="http://www.w3.org/2000/svg" viewBox="0 0 102.25 124.45"><defs><style>.cls-1{fill:#011627;}</style></defs><g id="Layer_2" data-name="Layer 2"><g id="Layer_1-2" data-name="Layer 1"><g id="Layer_1-3" data-name="Layer_1"><g id="_2744621441408" data-name=" 2744621441408"><path class="cls-1" d="M100.5,124.45H2.5A2.48,2.48,0,0,1,0,122V50.35H0v-.1H0V50H0v-.1H0v-.1H0v-.1H0v-.1H0l19.6-19.4v-6.1a.37.37,0,0,0,.1-.3c0-.1,0-.1.1-.2a.1.1,0,0,1,.1-.1l.1-.1.3-.3.1-.1.3-.3a.1.1,0,0,0,.1-.1l.2-.1.2-.1c.1,0,.2-.1.3-.1h5.9L48.9.75a2.42,2.42,0,0,1,3.5,0l21.5,21.5h6.6a2.53,2.53,0,0,1,1.5,2.3v5.5l19.6,19.4h0v.1h0a2.92,2.92,0,0,1,.2.9v71.1C102.9,123.35,101.8,124.45,100.5,124.45Zm-23-54.2V26.65h-52v43.6l26,26Zm-45.4-2.1a2.5,2.5,0,1,1,0-5H70.8a2.5,2.5,0,0,1,0,5ZM32,53.35a2.5,2.5,0,1,1,0-5H70.7a2.5,2.5,0,0,1,0,5Zm0-14.3a2.5,2.5,0,0,1,0-5H70.7a2.5,2.5,0,0,1,0,5Zm17.7,62.6L21.2,73.15h-.1L5,57.05v62.5H97.9V57.05l-44.7,44.7A2.73,2.73,0,0,1,49.7,101.65ZM20.5,65.25V53.35H8.6Zm0-16.8V36.75L8.6,48.45Zm14.8-26.8H67.6L51.4,5.45Zm47.2,15v11.7H94.3Zm0,16.7v11.9l11.9-11.9Z"/></g></g></g></g></svg>